PathFileType	4	(X/Y/Z)	C:/Users/beibeiliu/ov580/test_trc\sequence.3_training_dense_right.trc
DataRate	CameraRate	NumFrames	NumMarkers	Units	OrigDataRate	OrigDataStartFrame	OrigNumFrames
120	120	18	19	mm	120	240	319
Frame#	Time	ThumbCMC			ThumbMCP			ThumbIP			ThumbTip			IndexMCP			IndexPIP			IndexTip			MiddleMCP			MiddlePIP			MiddleTip			RingMCP			RingPIP			RingTip			PinkyMCP			PinkyPIP			PinkyTip			BackHand1			BackHand2			BackHand3	
		X0	Y0	Z0	X1	Y1	Z1	X2	Y2	Z2	X3	Y3	Z3	X4	Y4	Z4	X5	Y5	Z5	X6	Y6	Z6	X7	Y7	Z7	X8	Y8	Z8	X9	Y9	Z9	X10	Y10	Z10	X11	Y11	Z11	X12	Y12	Z12	X13	Y13	Z13	X14	Y14	Z14	X15	Y15	Z15	X16	Y16	Z16	X17	Y17	Z17	X18	Y18	Z18	
239	1.99167	232.202	-32.4223	-4.62384	228.918	-22.9722	-31.7872	215.486	-23.1293	-54.4343	189.525	-28.3416	-65.3811	219.494	-53.9193	-62.6254	213.532	-31.0183	-76.2554	218.058	-20.9687	-47.0619	197.972	-47.008	-64.513	192.267	-18.8452	-71.6054	200.719	-6.22305	-41.431	180.738	-34.1334	-55.2515	186.382	-11.375	-42.8173	193.274	-24.0547	-17.2215	167.092	-36.6485	-41.6621	177.776	-15.2341	-37.9202	187.006	-22.2338	-11.7715	188.883	-63.1409	-13.7258	192.822	-59.8245	14.3205	214.809	-61.1942	0.561253	
240	2	229.541	-33.2045	-3.4648	232.345	-20.1044	-35.6373	223.475	-19.7004	-55.7265	204.665	-19.299	-74.3915	218.848	-59.7373	-63.0461	215.453	-34.4666	-73.5179	220.473	-25.3613	-48.5087	200.165	-51.3272	-64.7276	199.454	-24.5406	-68.5657	207.063	-20.6538	-34.7418	185.263	-42.2763	-55.2258	191.697	-17.4859	-48.0917	198.62	-22.1423	-24.4845	169.903	-38.2124	-46.827	181.5	-18.6445	-41.9502	190.255	-23.6508	-18.5851	186.883	-64.4773	-7.6392	189.492	-58.4707	20.7602	215.23	-63.6217	1.35337	
241	2.00833	231.828	-33.8486	-4.0052	232.052	-22.3221	-37.1396	225.003	-24.572	-58.4692	207.043	-27.539	-76.533	225.116	-64.44	-58.2078	220.9	-43.1894	-73.8276	223.957	-28.5694	-47.7677	205.789	-58.442	-61.6067	205.084	-30.9675	-67.4395	204.771	-28.1648	-35.7586	189.038	-50.7412	-55.6952	193.373	-23.9103	-51.2785	196.771	-25.4223	-25.6922	174.132	-48.1033	-45.4274	183.094	-25.2626	-44.614	191.853	-27.9033	-17.6749	191.379	-68.1627	-5.08426	193.955	-56.7282	19.9493	217.639	-63.9654	3.1212	
242	2.01667	232.413	-32.5766	-3.81378	230.272	-25.1593	-33.8788	227.715	-25.539	-58.7348	212.749	-31.3889	-74.1439	234.505	-67.9729	-52.5144	226.145	-48.1668	-72.4744	221.996	-31.8025	-47.4066	210.406	-64.822	-58.365	208.342	-36.1711	-66.3756	206.029	-31.3459	-37.2341	192.784	-59.4611	-52.4737	195.507	-32.1302	-54.4582	197.165	-31.3519	-24.1887	177.239	-58.0658	-43.9295	183.596	-31.4051	-45.6819	194.325	-30.7693	-20.1599	197.61	-69.9876	-6.15431	194.669	-58.595	22.2745	221.489	-60.1183	9.44756	
243	2.025	232.09	-25.8309	1.29765	232.59	-21.5964	-31.9235	228.763	-29.0622	-56.0228	214.693	-37.2558	-75.1064	238.527	-68.5137	-54.5038	232.063	-50.3628	-71.6558	225.058	-32.4159	-48.51	217.38	-67.807	-55.2392	208.217	-43.4831	-70.7903	204.849	-29.7888	-40.1966	200.198	-63.0504	-53.4909	197.752	-38.4258	-56.2896	198.983	-32.3735	-29.9379	185.912	-63.3533	-43.6759	187.039	-38.9808	-47.9671	192.551	-34.9107	-26.5628	199.412	-74.2136	-4.95575	197.647	-59.9743	21.0404	226.026	-58.743	9.84007	
244	2.03333	229.293	-22.7171	4.13135	234.124	-23.3256	-29.7448	229.102	-35.6872	-53.9414	213.282	-47.8504	-66.8819	243.626	-64.425	-50.492	235.576	-48.6682	-71.1374	226.905	-32.2491	-46.0594	227.159	-65.1624	-55.2506	212.083	-44.6552	-72.7575	203.067	-24.9495	-47.4852	204.801	-66.2487	-54.7017	195.557	-41.8844	-58.6832	199.042	-35.3591	-27.829	189.693	-68.471	-45.5892	189.051	-43.6031	-50.1139	192.388	-38.1974	-22.9572	208.628	-73.7141	-1.46976	200.136	-61.5787	21.3158	229.939	-57.0222	7.45166	
245	2.04167	227.035	-21.2464	4.51661	233.035	-19.7683	-29.6359	230.075	-30.0182	-49.8034	215.677	-46.421	-64.062	249.558	-56.9988	-47.9562	242.481	-42.69	-70.113	226.744	-30.898	-44.2011	231.149	-63.3966	-58.0353	217.091	-43.6216	-73.2352	202.463	-25.2585	-51.7234	210.262	-67.8476	-55.0919	201.104	-41.6345	-58.6078	197.165	-36.6742	-33.4708	195.39	-69.752	-50.2596	192.117	-47.6487	-51.3057	195.636	-40.5587	-26.7024	214.145	-75.1206	-6.54959	204.131	-63.8517	21.3813	230.781	-52.5616	9.81866	
246	2.05	225.97	-19.5061	0.670637	225.999	-14.6834	-32.4731	225.546	-20.6944	-53.6725	217.571	-37.4496	-72.9263	252.637	-48.2465	-49.6123	238.14	-31.6528	-67.5967	224.427	-25.2911	-43.2587	236.933	-58.0354	-59.7471	216.144	-40.7392	-69.847	208.447	-31.5069	-38.9267	221.553	-63.7258	-55.4818	201.996	-43.3225	-59.75	197.882	-39.4624	-32.932	204.763	-72.1839	-49.2636	196.375	-52.256	-55.1511	196.988	-42.4313	-26.1215	218.907	-77.8685	-6.38625	207.5	-67.9819	19.2969	233.697	-50.557	10	
247	2.05833	222.282	-17.7205	-0.224525	220.445	-12.1441	-33.6297	221.248	-15.9571	-56.6151	217.945	-28.0742	-78.9838	254.529	-36.9047	-50.0268	233.609	-24.5757	-64.5096	222.688	-21.9785	-36.1901	241.088	-50.6733	-58.0441	218.111	-35.6738	-66.7464	212.401	-33.1352	-36.6972	223.292	-62.1018	-60.2378	203.487	-45.2714	-59.808	200.054	-40.716	-31.9659	209.772	-73.5914	-53.9007	199.987	-51.7769	-55.2706	196.021	-46.4888	-30.0471	222.725	-74.7747	-5.84159	213.775	-66.6404	16.7452	237.435	-49.6547	8.0734	
248	2.06667	216.331	-19.3503	-0.466059	212.981	-12.0016	-31.6865	216.599	-15.8976	-57.835	213.899	-26.9304	-80.1228	251.126	-29.5957	-51.3151	229.709	-22.908	-64.9854	216.208	-22.5848	-38.188	239.648	-47.3521	-61.275	216.587	-33.2888	-65.5423	212.749	-35.4289	-34.5846	227.477	-58.5261	-57.0765	207.997	-43.7123	-61.4131	200.87	-42.3621	-31.4574	216.245	-73.2774	-52.9337	201.055	-54.6158	-55.716	196.228	-49.6662	-28.1204	229.727	-72.9941	-7.06616	216.17	-72.7918	16.9324	235.144	-48.1959	6.42588	
249	2.075	211.356	-22.251	1.19871	208.75	-14.3903	-34.5834	209.975	-17.1979	-55.887	210.141	-30.6279	-80.3227	246.625	-25.0917	-53.5563	223.766	-17.9023	-64.5019	210.549	-22.8513	-39.0054	238.676	-42.5411	-62.1563	213.311	-32.9014	-66.7755	210.306	-38.8655	-32.3617	227.469	-54.7848	-60.7132	203.511	-45.6234	-59.7947	198.846	-45.4598	-31.5376	220.397	-68.5609	-53.5958	198.845	-59.8207	-56.215	198.523	-53.3642	-28.0776	234.952	-67.7568	-7.96699	219.317	-70.0624	17.3104	234.995	-48.316	8.06982	
250	2.08333	207.92	-20.8581	-2.75335	198.55	-14.2056	-32.9826	202.302	-16.0175	-58.5572	205.314	-31.858	-77.2697	240.539	-17.0764	-54.1066	218.802	-19.2497	-66.1305	204.151	-21.4218	-39.9698	236.701	-37.9982	-58.4935	208.503	-36.6565	-66.3772	206.444	-40.3285	-34.0122	228.265	-57.4246	-57.3573	202.103	-49.9268	-60.818	196.931	-50.1258	-30.3536	221.611	-69.9442	-53.784	198.249	-59.7753	-54.2115	197.173	-57.3067	-28.6189	236.226	-65.2178	-6.764	223.459	-67.3871	14.2645	234.881	-40.3978	5.40583	
251	2.09167	200.204	-21.4483	-0.976327	192.229	-20.0435	-30.8253	194.181	-20.8012	-54.849	201.445	-33.6696	-79.1853	234.518	-13.3483	-49.0598	209.357	-15.2291	-64.875	198.977	-27.0016	-37.0219	233.687	-31.8688	-57.5767	204.958	-36.7535	-66.1233	200.468	-39.8934	-35.4318	227.399	-51.6575	-58.0818	200.36	-53.2131	-60.7601	196.962	-52.1203	-31.1299	223.996	-69.9861	-54.8176	199.914	-62.1263	-53.0521	196.549	-58.3645	-27.0175	239.753	-60.3322	-8.93938	225.826	-69.2174	12.8248	230.986	-38.1783	5.31431	
252	2.1	193.379	-26.0714	-2.05635	186.65	-22.1918	-34.8912	188.51	-24.6645	-57.5681	194.853	-36.3625	-75.5431	229.273	-15.8613	-51.7505	204.359	-20.8489	-66.9772	192.163	-28.4733	-38.5876	228.881	-31.6357	-59.4233	203.879	-41.0733	-69.6466	199.773	-43.1176	-34.5832	225.827	-50.9628	-57.9984	199.386	-56.0422	-60.721	195.824	-56.0445	-30.6019	225.06	-64.6996	-53.31	200.547	-67.8531	-53.9113	195.943	-65.7739	-27.8185	239.936	-59.5963	-8.5219	227.741	-68.0889	14.375	227.903	-38.0821	5.94673	
253	2.10833	190.75	-27.4083	-3.88657	181.348	-27.9081	-31.2682	184.474	-25.8725	-60.5063	191.598	-35.728	-81.0475	221.718	-9.73086	-52.3245	200.011	-19.2952	-68.6487	187.141	-29.691	-44.9284	224.116	-27.9293	-59.164	198.927	-43.0789	-67.84	195.372	-44.9371	-35.2613	224.633	-50.6257	-60.1612	199.972	-55.6847	-60.2598	195.419	-57.0937	-31.1057	226.148	-66.7495	-53.7649	202.58	-67.616	-55.0698	195.844	-67.0102	-28.1038	238.242	-55.387	-11.2519	228.332	-61.3606	15.3716	225.138	-36.0108	6.44695	
254	2.11667	187.418	-33.0328	-1.15348	179.424	-31.6235	-32.1597	181.937	-29.6679	-55.9871	192.217	-38.3082	-76.6102	217.787	-10.4351	-55.1081	199.569	-20.909	-68.8066	184.735	-31.703	-40.6233	221.348	-25.8977	-58.2069	197.028	-41.5132	-68.2224	195.35	-47.0617	-34.8564	222.974	-47.368	-59.5391	197.146	-55.9082	-58.8969	196.49	-58.1222	-29.4668	227.342	-65.2955	-55.2576	200.826	-65.056	-51.3276	198.855	-65.5239	-28.6255	238.887	-54.27	-8.56673	228.771	-57.9414	13.5786	220.164	-33.3264	7.75744	
255	2.125	183.156	-34.5662	0.600552	176.304	-31.6048	-33.7034	176.181	-30.532	-58.0416	187.14	-38.0421	-80.708	213.04	-8.27524	-50.0337	193.475	-20.2977	-68.8479	182.759	-35.689	-41.8596	218.507	-25.4913	-60.1542	196.906	-42.316	-69.2486	192.042	-50.3516	-40.1012	223.222	-45.7816	-56.762	196.163	-58.8161	-57.0743	195.477	-59.2731	-31.6595	228.013	-63.4273	-54.8943	202.777	-68.5278	-52.148	198.158	-66.134	-28.9555	237.429	-49.2093	-11.2472	228.001	-59.6581	16.3325	216.724	-31.1991	6.08833	
256	2.13333	183.677	-35.2	-2.87989	173.794	-35.6653	-32.7617	175.636	-33.6251	-56.576	183.655	-39.0379	-75.1019	208.83	-9.09101	-53.0056	191.441	-19.7516	-70.762	181.145	-38.1919	-47.1883	218.744	-25.87	-58.6739	197.006	-44.1429	-70.947	189.44	-51.5493	-39.4272	217.864	-42.1877	-60.2743	199.832	-60.613	-59.9659	194.169	-61.9743	-32.7941	225.946	-60.707	-56.5345	202.926	-66.9453	-51.3463	197.927	-68.7571	-30.248	234.482	-44.1051	-9.1429	228.485	-54.2975	14.6205	217.018	-32.9806	8.26127	
